<svg xmlns="http://www.w3.org/2000/svg" xmlns:xlink="http://www.w3.org/1999/xlink" width="1000" zoomAndPan="magnify" viewBox="0 0 750 749.999995" height="1000" preserveAspectRatio="xMidYMid meet" version="1.0"><defs><g/><clipPath id="b36c4d4ea0"><path d="M 0 0 L 745.953125 0 L 745.953125 745.953125 L 0 745.953125 Z M 0 0 " clip-rule="nonzero"/></clipPath><clipPath id="6c4e8a57bd"><path d="M 372.976562 0 C 166.988281 0 0 166.988281 0 372.976562 C 0 578.964844 166.988281 745.953125 372.976562 745.953125 C 578.964844 745.953125 745.953125 578.964844 745.953125 372.976562 C 745.953125 166.988281 578.964844 0 372.976562 0 " clip-rule="nonzero"/></clipPath></defs><g clip-path="url(#b36c4d4ea0)"><g clip-path="url(#6c4e8a57bd)"><path fill="#23b455" d="M 0 0 L 745.953125 0 L 745.953125 745.953125 L 0 745.953125 Z M 0 0 " fill-opacity="1" fill-rule="nonzero"/></g></g><g fill="#ffffff" fill-opacity="1"><g transform="translate(6.408731, 508.635568)"><g><path d="M 273.972656 -247.59375 L 31.007812 -153.648438 L 31.007812 -87.46875 L 273.972656 6.015625 L 273.972656 -59.699219 L 107.832031 -120.328125 L 273.972656 -181.414062 Z M 273.972656 -247.59375 "/></g></g></g><g fill="#000000" fill-opacity="1"><g transform="translate(311.840494, 508.635568)"><g><path d="M 129.121094 -340.617188 L 73.121094 -340.617188 L -0.925781 22.214844 L 55.535156 22.214844 Z M 129.121094 -340.617188 "/></g></g></g><g fill="#000000" fill-opacity="1"><g transform="translate(440.496966, 508.635568)"><g><path d="M 31.46875 -247.59375 L 31.46875 -181.414062 L 197.613281 -120.328125 L 31.46875 -59.699219 L 31.46875 6.015625 L 274.4375 -87.46875 L 274.4375 -153.648438 Z M 31.46875 -247.59375 "/></g></g></g></svg>